<svg width="56" height="56" viewBox="0 0 56 56" fill="none" xmlns="http://www.w3.org/2000/svg">
<g clip-path="url(#clip0_8758_23283)">
<path d="M56 28C56 43.4631 43.4631 56 28 56C12.5369 56 0 43.4631 0 28C0 12.5369 12.5369 0 28 0C43.4663 0 56 12.5369 56 28Z" fill="url(#paint0_linear_8758_23283)"/>
<path d="M13.8134 28.9408L13.9343 28.751L21.2182 17.3562C21.3246 17.1893 21.5749 17.2066 21.6554 17.3878C22.8723 20.115 23.9223 23.5067 23.4304 25.6182C23.2204 26.4869 22.6451 27.6636 21.9978 28.751C21.9143 28.9092 21.8223 29.0646 21.7245 29.2141C21.6784 29.2832 21.6008 29.3235 21.5173 29.3235H14.0263C13.8249 29.3235 13.707 29.1048 13.8134 28.9408Z" fill="#10151A"/>
<path d="M46.2826 31.0581V32.8618C46.2826 32.9653 46.2193 33.0574 46.1273 33.0977C45.5634 33.3394 43.6331 34.2254 42.8305 35.3415C40.7823 38.1924 39.2173 42.2687 35.7192 42.2687H21.1255C15.9531 42.2687 11.7617 38.063 11.7617 32.8733V32.7064C11.7617 32.5684 11.8739 32.4562 12.012 32.4562H20.1474C20.3085 32.4562 20.4265 32.6058 20.4121 32.764C20.3545 33.2933 20.4524 33.8342 20.7026 34.3261C21.186 35.307 22.1871 35.9198 23.2687 35.9198H27.2961V32.7755H23.3147C23.1105 32.7755 22.9897 32.5396 23.1076 32.3727C23.1507 32.3066 23.1997 32.2375 23.2514 32.1599C23.6283 31.6248 24.1662 30.7934 24.7013 29.847C25.0666 29.2084 25.4205 28.5265 25.7053 27.8419C25.7628 27.7182 25.8089 27.5916 25.8549 27.4679C25.9326 27.2493 26.0131 27.045 26.0707 26.8408C26.1281 26.6682 26.1742 26.487 26.2202 26.3172C26.3554 25.7361 26.413 25.1205 26.413 24.4818C26.413 24.2316 26.4015 23.9698 26.3785 23.7195C26.367 23.4462 26.3324 23.1729 26.2979 22.8997C26.2749 22.658 26.2317 22.4192 26.1857 22.169C26.1281 21.8036 26.0476 21.4412 25.9555 21.0758L25.9239 20.9377C25.8549 20.6875 25.7974 20.4487 25.7168 20.1984C25.4896 19.413 25.2277 18.6478 24.9516 17.9315C24.8509 17.6467 24.7358 17.3735 24.6207 17.1002C24.451 16.6888 24.2784 16.3148 24.1202 15.9609C24.0397 15.7999 23.9706 15.6531 23.9016 15.5036C23.8239 15.3338 23.7434 15.1641 23.6628 15.003C23.6053 14.8793 23.5391 14.7642 23.4931 14.6492L23.0012 13.7401C22.9321 13.6164 23.0472 13.4697 23.1824 13.5071L26.2605 14.3414H26.2691C26.2749 14.3414 26.2778 14.3442 26.2807 14.3442L26.6863 14.4564L27.1322 14.583L27.2961 14.629V12.7994C27.2961 11.9163 28.0038 11.2 28.8784 11.2C29.3156 11.2 29.7126 11.3783 29.9974 11.6689C30.2822 11.9594 30.4606 12.3564 30.4606 12.7994V15.5151L30.7885 15.6071C30.8144 15.6157 30.8403 15.6272 30.8633 15.6445C30.9438 15.7049 31.0589 15.7941 31.2056 15.9034C31.3207 15.9955 31.4444 16.1077 31.594 16.2227C31.8903 16.4615 32.2441 16.7693 32.6325 17.1231C32.736 17.2124 32.8368 17.3044 32.9288 17.3965C33.4294 17.8625 33.9903 18.4091 34.5254 19.0132C34.675 19.1829 34.8217 19.3555 34.9713 19.5367C35.1209 19.7208 35.2791 19.9021 35.4172 20.0834C35.5984 20.325 35.794 20.5752 35.9637 20.8371C36.0443 20.9608 36.1363 21.0873 36.2141 21.211C36.4326 21.5418 36.6254 21.8842 36.8095 22.2265C36.8872 22.3847 36.9678 22.5573 37.0368 22.7271C37.241 23.1844 37.4021 23.6505 37.5057 24.1165C37.5373 24.2172 37.5604 24.3265 37.5719 24.4244V24.4473C37.6063 24.5854 37.6178 24.7322 37.6294 24.8817C37.6754 25.3592 37.6524 25.8368 37.5488 26.3172C37.5057 26.5215 37.4482 26.7142 37.3791 26.9185C37.31 27.1141 37.241 27.3183 37.1519 27.5111C36.9793 27.9109 36.775 28.3108 36.5333 28.6848C36.4557 28.8228 36.3636 28.9696 36.2715 29.1076C36.1709 29.2544 36.0673 29.3925 35.9752 29.5277C35.8487 29.7003 35.7135 29.8815 35.5754 30.0426C35.4517 30.2123 35.3251 30.3821 35.187 30.5316C34.9943 30.7589 34.8102 30.9747 34.6174 31.1818C34.5024 31.317 34.3787 31.4551 34.2521 31.5788C34.1284 31.7169 34.0018 31.8406 33.8868 31.9556C33.694 32.1484 33.5329 32.298 33.3977 32.4216L33.0812 32.7122C33.0352 32.7525 32.9748 32.7755 32.9115 32.7755H30.4606V35.9198H33.5444C34.2348 35.9198 34.8907 35.6752 35.42 35.2265C35.6013 35.0683 36.3924 34.3836 37.3273 33.3509C37.3589 33.3163 37.3993 33.2905 37.4452 33.2789L45.9633 30.8164C46.1215 30.7704 46.2826 30.8912 46.2826 31.0581Z" fill="#10151A"/>
</g>
<defs>
<linearGradient id="paint0_linear_8758_23283" x1="28" y1="0" x2="28" y2="56" gradientUnits="userSpaceOnUse">
<stop stop-color="#3E99F3"/>
<stop offset="1" stop-color="#2081E2"/>
</linearGradient>
<clipPath id="clip0_8758_23283">
<rect width="56" height="56" rx="28" fill="white"/>
</clipPath>
</defs>
</svg>
