<svg width="56" height="56" viewBox="0 0 56 56" fill="none" xmlns="http://www.w3.org/2000/svg">
<rect y="-0.00012207" width="56.0003" height="56.0003" rx="28.0001" fill="url(#paint0_linear_8758_23299)"/>
<path d="M15.8489 25.8267C16.2093 26.5661 17.1012 28.0275 17.1012 28.0275L27.412 11.6666L17.3489 18.4116C16.7493 18.7955 16.2573 19.3152 15.9165 19.9249C15.4581 20.8445 15.2146 21.8492 15.203 22.8686C15.1913 23.888 15.4117 24.8976 15.8489 25.8267Z" fill="#10151A"/>
<path d="M11.7633 31.214C11.8769 32.779 12.3376 34.3026 13.1144 35.6829C13.8913 37.0631 14.9664 38.268 16.2678 39.2171L27.3984 46.6668C27.3984 46.6668 20.4345 37.0336 14.5606 27.4481C13.9659 26.4353 13.5661 25.3281 13.3804 24.1793C13.2982 23.6592 13.2982 23.1301 13.3804 22.6099C13.2273 22.8823 12.9299 23.44 12.9299 23.44C12.3344 24.6059 11.9287 25.8527 11.7272 27.1367C11.6113 28.4941 11.6233 29.8587 11.7633 31.214Z" fill="#10151A"/>
<path d="M40.1598 32.5067C39.7994 31.7675 38.9076 30.306 38.9076 30.306L28.5967 46.6668L38.6599 39.9263C39.2595 39.5423 39.7513 39.0225 40.0922 38.4129C40.5513 37.4926 40.7951 36.4872 40.8069 35.467C40.8185 34.4469 40.5977 33.4365 40.1598 32.5067Z" fill="#10151A"/>
<path d="M44.2454 27.1195C44.1318 25.5544 43.6711 24.0308 42.8943 22.6506C42.1175 21.2704 41.0423 20.0654 39.7409 19.1163L28.6102 11.6666C28.6102 11.6666 35.5697 21.2998 41.4481 30.8853C42.0413 31.8983 42.4394 33.0056 42.6238 34.1541C42.706 34.6742 42.706 35.2034 42.6238 35.7236C42.7769 35.4511 43.0742 34.8934 43.0742 34.8934C43.6698 33.7275 44.0755 32.4807 44.277 31.1967C44.3945 29.8395 44.3839 28.4748 44.2454 27.1195Z" fill="#10151A"/>
<path d="M15.9165 19.9249C16.2573 19.3152 16.7493 18.7955 17.3489 18.4116L27.412 11.6666L17.1011 28.0317C17.1011 28.0317 16.2002 26.5703 15.8489 25.8309C15.411 24.9013 15.1902 23.891 15.2019 22.8707C15.2136 21.8505 15.4575 20.8451 15.9165 19.9249ZM11.7633 31.214C11.8769 32.779 12.3376 34.3026 13.1144 35.6829C13.8913 37.0631 14.9664 38.268 16.2678 39.2171L27.3984 46.6668C27.3984 46.6668 20.4345 37.0336 14.5606 27.4481C13.9659 26.4353 13.5661 25.3281 13.3804 24.1793C13.2982 23.6592 13.2982 23.1301 13.3804 22.6099C13.2273 22.8823 12.9299 23.44 12.9299 23.44C12.3344 24.6059 11.9287 25.8527 11.7272 27.1367C11.6113 28.4941 11.6233 29.8587 11.7633 31.214ZM40.1418 32.5111C39.7814 31.7717 38.8896 30.3103 38.8896 30.3103L28.5967 46.6668L38.6599 39.9263C39.2595 39.5423 39.7513 39.0225 40.0922 38.4129C40.5513 37.4926 40.7951 36.4872 40.8069 35.467C40.8185 34.4469 40.5977 33.4365 40.1598 32.5067L40.1418 32.5111ZM44.2273 27.1238C44.1138 25.5588 43.6531 24.0352 42.8762 22.6549C42.0994 21.2747 41.0243 20.0697 39.7228 19.1207L28.6102 11.6666C28.6102 11.6666 35.5697 21.2998 41.4481 30.8853C42.0413 31.8983 42.4394 33.0056 42.6238 34.1541C42.706 34.6742 42.706 35.2034 42.6238 35.7236C42.7769 35.4511 43.0742 34.8934 43.0742 34.8934C43.6698 33.7275 44.0755 32.4807 44.277 31.1967C44.3945 29.8395 44.3839 28.4748 44.2454 27.1195L44.2273 27.1238Z" fill="#10151A"/>
<defs>
<linearGradient id="paint0_linear_8758_23299" x1="28.0001" y1="-0.00012207" x2="28.0001" y2="56.0002" gradientUnits="userSpaceOnUse">
<stop stop-color="#A09FFE"/>
<stop offset="1" stop-color="#4ACEF7"/>
</linearGradient>
</defs>
</svg>
