<?xml version="1.0" encoding="UTF-8"?>
<svg xmlns="http://www.w3.org/2000/svg" xmlns:xlink="http://www.w3.org/1999/xlink" width="56px" height="56px" viewBox="0 0 56 56" version="1.1">
<g id="surface1">
<path style=" stroke:none;fill-rule:nonzero;fill:#008C73;fill-opacity:1;" d="M 23.292969 1.792969 C 13.925781 3.539062 6.226562 10.015625 3.015625 18.832031 C 1.867188 21.972656 1.421875 24.660156 1.421875 28.148438 C 1.46875 40.953125 10.238281 51.539062 22.96875 54.15625 C 25.433594 54.65625 30.664062 54.679688 33.007812 54.179688 C 45.859375 51.464844 54.554688 40.902344 54.554688 28.023438 C 54.554688 15.171875 45.785156 4.507812 33.082031 1.894531 C 30.941406 1.445312 25.382812 1.394531 23.292969 1.792969 Z M 30.167969 20.800781 C 32.484375 21.621094 34.152344 23.292969 34.898438 25.484375 L 35.300781 26.679688 L 41.5 26.65625 C 48.402344 26.628906 48.824219 26.730469 48.824219 28.148438 C 48.824219 29.570312 48.402344 29.644531 41.453125 29.644531 L 35.175781 29.644531 L 35 30.367188 C 34.777344 31.414062 33.378906 33.28125 32.160156 34.152344 C 27.453125 37.640625 20.652344 34.5 20.226562 28.671875 C 20.101562 26.65625 20.425781 25.335938 21.5 23.738281 C 22.34375 22.496094 24.1875 21.074219 25.507812 20.699219 C 26.730469 20.328125 28.996094 20.402344 30.167969 20.800781 Z M 30.167969 20.800781 "/>
</g>
</svg>
