<svg width="58" height="57" viewBox="0 0 58 57" fill="none" xmlns="http://www.w3.org/2000/svg">
<g id="Polygon (MATIC)">
<circle id="Polygon (MATIC)_2" cx="28.9995" cy="28.0503" r="28.0503" fill="url(#paint0_linear_26_158)"/>
<g id="Polygon (MATIC)_3">
<path id="Polygon (MATIC)_4" d="M37.4157 22.4166C36.8176 22.0726 36.0486 22.0726 35.365 22.4166L30.5801 25.255L27.3332 27.0612L22.6338 29.8995C22.0357 30.2435 21.2666 30.2435 20.5831 29.8995L16.909 27.6632C16.3108 27.3192 15.8836 26.6311 15.8836 25.857V21.5565C15.8836 20.8685 16.2254 20.1804 16.909 19.7503L20.5831 17.6001C21.1812 17.256 21.9502 17.256 22.6338 17.6001L26.3079 19.8363C26.906 20.1804 27.3332 20.8685 27.3332 21.6425V24.4809L30.5801 22.5887V19.6643C30.5801 18.9762 30.2384 18.2882 29.5548 17.8581L22.7192 13.8156C22.1211 13.4716 21.3521 13.4716 20.6685 13.8156L13.6621 17.9441C12.9785 18.2882 12.6367 18.9762 12.6367 19.6643V27.7492C12.6367 28.4373 12.9785 29.1254 13.6621 29.5555L20.5831 33.5979C21.1812 33.942 21.9502 33.942 22.6338 33.5979L27.3332 30.8456L30.5801 28.9534L35.2796 26.2011C35.8777 25.857 36.6467 25.857 37.3303 26.2011L41.0044 28.3513C41.6025 28.6954 42.0297 29.3834 42.0297 30.1575V34.458C42.0297 35.1461 41.688 35.8342 41.0044 36.2642L37.4157 38.4145C36.8176 38.7585 36.0486 38.7585 35.365 38.4145L31.6909 36.2642C31.0928 35.9202 30.6656 35.2321 30.6656 34.458V31.7057L27.4187 33.5979V36.4362C27.4187 37.1243 27.7605 37.8124 28.444 38.2425L35.365 42.2849C35.9632 42.629 36.7322 42.629 37.4157 42.2849L44.3368 38.2425C44.9349 37.8984 45.3621 37.2103 45.3621 36.4362V28.2653C45.3621 27.5772 45.0203 26.8891 44.3368 26.4591L37.4157 22.4166Z" fill="#10151A"/>
</g>
</g>
<defs>
<linearGradient id="paint0_linear_26_158" x1="28.9995" y1="0" x2="28.9995" y2="56.1006" gradientUnits="userSpaceOnUse">
<stop stop-color="#965EF4"/>
<stop offset="1" stop-color="#8247E5"/>
</linearGradient>
</defs>
</svg>
