<svg width="56" height="56" viewBox="0 0 56 56" fill="none" xmlns="http://www.w3.org/2000/svg">
<path d="M0 27.9777C0 12.5215 12.5215 0 27.9777 0C43.4339 0 55.9553 12.5215 55.9553 27.9777C55.9553 43.4339 43.4339 55.9553 27.9777 55.9553C12.5215 55.9227 0 43.4012 0 27.9777Z" fill="#F7F7F7"/>
<path d="M0 27.9777C0 12.5215 12.5215 0 27.9777 0C43.4339 0 55.9553 12.5215 55.9553 27.9777C55.9553 43.4339 43.4339 55.9553 27.9777 55.9553C12.5215 55.9227 0 43.4012 0 27.9777Z" fill="url(#paint0_linear_8758_23294)"/>
<path d="M41.0117 25.9904C40.8868 25.6559 40.5669 25.4334 40.2092 25.4334H29.8785L35.8374 13.8475C36.0247 13.483 35.9281 13.0373 35.6055 12.784C35.4498 12.6608 35.2624 12.6001 35.0759 12.6001C34.8766 12.6001 34.6773 12.6703 34.5173 12.808L28.2315 18.2365L15.6952 29.0636C15.4248 29.2971 15.3273 29.6744 15.4522 30.0089C15.5771 30.3435 15.8962 30.5668 16.2538 30.5668H26.5846L20.6257 42.1527C20.4383 42.5172 20.535 42.9629 20.8576 43.2162C21.0133 43.3394 21.2006 43.4001 21.3871 43.4001C21.5865 43.4001 21.7858 43.3299 21.9458 43.1922L28.2315 37.7637L40.7679 26.9366C41.0391 26.7031 41.1358 26.3258 41.0117 25.9904Z" fill="#10151A"/>
<defs>
<linearGradient id="paint0_linear_8758_23294" x1="27.9777" y1="0" x2="27.9777" y2="55.9553" gradientUnits="userSpaceOnUse">
<stop stop-color="#FFCC4A"/>
<stop offset="1" stop-color="#FFAC32"/>
</linearGradient>
</defs>
</svg>
